<svg width="38" height="38" viewBox="0 0 38 38" fill="none" xmlns="http://www.w3.org/2000/svg">
<path d="M19 8.99992V35.6666M19 8.99992H13.1072C12.2389 8.99992 11.4062 8.64873 10.7923 8.02361C10.1783 7.39849 9.83337 6.55064 9.83337 5.66659C9.83337 4.78253 10.1783 3.93468 10.7923 3.30956C11.4062 2.68444 12.2389 2.33325 13.1072 2.33325C17.6905 2.33325 19 8.99992 19 8.99992ZM19 8.99992H24.8929C25.7612 8.99992 26.5939 8.64873 27.2078 8.02361C27.8218 7.39849 28.1667 6.55064 28.1667 5.66659C28.1667 4.78253 27.8218 3.93468 27.2078 3.30956C26.5939 2.68444 25.7612 2.33325 24.8929 2.33325C20.3096 2.33325 19 8.99992 19 8.99992ZM32.3334 17.3333V30.3333C32.3334 32.2001 32.3334 33.1335 31.9701 33.8466C31.6505 34.4738 31.1405 34.9837 30.5133 35.3033C29.8003 35.6666 28.8669 35.6666 27 35.6666L11 35.6666C9.1332 35.6666 8.19978 35.6666 7.48674 35.3033C6.85953 34.9837 6.3496 34.4738 6.03002 33.8466C5.66671 33.1335 5.66671 32.2001 5.66671 30.3333V17.3333M2.33337 11.6666L2.33337 14.6666C2.33337 15.6 2.33337 16.0667 2.51503 16.4232C2.67482 16.7368 2.92979 16.9918 3.24339 17.1516C3.59991 17.3333 4.06662 17.3333 5.00004 17.3333L33 17.3333C33.9335 17.3333 34.4002 17.3333 34.7567 17.1516C35.0703 16.9918 35.3253 16.7368 35.4851 16.4232C35.6667 16.0667 35.6667 15.6 35.6667 14.6666V11.6666C35.6667 10.7332 35.6667 10.2665 35.4851 9.90994C35.3253 9.59633 35.0703 9.34136 34.7567 9.18158C34.4002 8.99992 33.9335 8.99992 33 8.99992L5.00004 8.99992C4.06662 8.99992 3.59991 8.99992 3.24339 9.18157C2.92979 9.34136 2.67482 9.59633 2.51503 9.90993C2.33337 10.2665 2.33337 10.7332 2.33337 11.6666Z" stroke="#43A548" stroke-width="3" stroke-linecap="round" stroke-linejoin="round"/>
</svg>
